<svg height="54" viewBox="0 0 57 54" width="57" xmlns="http://www.w3.org/2000/svg"><path d="m983 247.041074c-.329733-.027203-.663247-.041074-1-.041074s-.670267.013871-1 .041074v-18.041074h-44v30h33c0 .681424.056798 1.349583.165917 2h-33.165917c-1.104569 0-2-.895431-2-2v-31-5c0-1.104569.895431-2 2-2h8c0 2.209139 1.790861 4 4 4s4-1.790861 4-4h12c0 2.209139 1.790861 4 4 4s4-1.790861 4-4h8c1.104569 0 2 .895431 2 2v5zm-34-32.041074c1.104569 0 2 .895431 2 2v4c0 1.104569-.895431 2-2 2s-2-.895431-2-2v-4c0-1.104569.895431-2 2-2zm20 0c1.104569 0 2 .895431 2 2v4c0 1.104569-.895431 2-2 2s-2-.895431-2-2v-4c0-1.104569.895431-2 2-2zm13 54c-5.522847 0-10-4.477153-10-10s4.477153-10 10-10 10 4.477153 10 10-4.477153 10-10 10zm.999999-13.971405c0-.568077-.447715-1.028595-.999999-1.028595-.552285 0-1 .460518-1 1.028595v5.135951l3.277991 3.518526c.382117.410157 1.015138.424029 1.413892.030986.398754-.393044.412241-1.044166.030124-1.454323l-2.722008-2.921746zm-13.999999-21.028595h4c1.104569 0 2 .895431 2 2s-.895431 2-2 2h-4c-1.104569 0-2-.895431-2-2s.895431-2 2-2zm-12 0h4c1.104569 0 2 .895431 2 2s-.895431 2-2 2h-4c-1.104569 0-2-.895431-2-2s.895431-2 2-2zm-12 8h4c1.104569 0 2 .895431 2 2s-.895431 2-2 2h-4c-1.104569 0-2-.895431-2-2s.895431-2 2-2zm24 0h4c1.104569 0 2 .895431 2 2s-.895431 2-2 2h-4c-1.104569 0-2-.895431-2-2s.895431-2 2-2zm-12 0h4c1.104569 0 2 .895431 2 2s-.895431 2-2 2h-4c-1.104569 0-2-.895431-2-2s.895431-2 2-2zm-12 8h4c1.104569 0 2 .895431 2 2s-.895431 2-2 2h-4c-1.104569 0-2-.895431-2-2s.895431-2 2-2zm12 0h4c1.104569 0 2 .895431 2 2s-.895431 2-2 2h-4c-1.104569 0-2-.895431-2-2s.895431-2 2-2z" transform="translate(-935 -215)"/></svg>