<svg fill="none" height="24" viewBox="0 0 24 24" width="24" xmlns="http://www.w3.org/2000/svg"><g fill="#0f0f0f"><path d="m3 7c0 .55228-.44772 1-1 1s-1-.44772-1-1v-4c0-1.10457.89543-2 2-2h4c.55228 0 1 .44772 1 1s-.44772 1-1 1h-2.58579l6.29289 6.29289c.3905.39053.3905 1.02371 0 1.41421s-1.02368.3905-1.41421 0l-6.29289-6.29288z"/><path d="m21 17c0-.5523.4477-1 1-1s1 .4477 1 1v4c0 1.1046-.8954 2-2 2h-4c-.5523 0-1-.4477-1-1s.4477-1 1-1h2.5858l-6.2929-6.2929c-.3905-.3905-.3905-1.0237 0-1.4142s1.0237-.3905 1.4142 0l6.2929 6.2929z"/><path d="m21 7c0 .55228.4477 1 1 1s1-.44772 1-1v-4c0-1.10457-.8954-2-2-2h-4c-.5523 0-1 .44772-1 1s.4477 1 1 1h2.5858l-6.2929 6.29289c-.3905.39053-.3905 1.02371 0 1.41421s1.0237.3905 1.4142 0l6.2929-6.29289z"/><path d="m3 17c0-.5523-.44772-1-1-1s-1 .4477-1 1v4c0 1.1046.89543 2 2 2h4c.55228 0 1-.4477 1-1s-.44772-1-1-1h-2.58579l6.29289-6.2929c.3905-.3905.3905-1.0237 0-1.4142s-1.02368-.3905-1.41421 0l-6.29289 6.2929z"/></g></svg>