<?xml version="1.0" encoding="UTF-8" standalone="no"?>
<!-- Created with Inkscape (http://www.inkscape.org/) -->

<svg
   width="172.29749mm"
   height="35.844906mm"
   viewBox="0 0 172.29749 35.844906"
   version="1.1"
   id="svg5"
   xmlns:xlink="http://www.w3.org/1999/xlink"
   xmlns="http://www.w3.org/2000/svg"
   xmlns:svg="http://www.w3.org/2000/svg">
  <defs
     id="defs2">
    <linearGradient
       id="linearGradient1">
      <stop
         style="stop-color:#dddbdb;stop-opacity:1;"
         offset="0"
         id="stop1" />
      <stop
         style="stop-color:#cacaca;stop-opacity:0.68627453;"
         offset="0.58743846"
         id="stop5" />
    </linearGradient>
    <linearGradient
       xlink:href="#linearGradient1"
       id="linearGradient2"
       x1="115.24488"
       y1="206.33199"
       x2="115.24488"
       y2="169.65492"
       gradientUnits="userSpaceOnUse"
       spreadMethod="repeat" />
  </defs>
  <g
     id="layer1"
     transform="translate(-24.734137,-170.36546)">
    <path
       id="path2580-3-2"
       style="font-size:37.3799px;font-family:FreeSerif;-inkscape-font-specification:FreeSerif;letter-spacing:-2.39448px;display:inline;fill:url(#linearGradient2);fill-opacity:1;stroke:none;stroke-width:0.3;stroke-linecap:round;stroke-dasharray:none;stroke-opacity:1;paint-order:stroke fill markers"
       d="m 42.107754,170.36552 c -9.69821,0 -17.373616,7.26064 -17.373616,18.20354 0,10.63173 7.053116,17.56436 17.21807,17.58135 5.58398,0.009 9.289028,-4.3827 14.308171,-8.49405 -0.398857,0.80658 -0.6196,1.70976 -0.6196,2.7373 0,3.26731 2.282075,5.54901 5.445662,5.54901 2.281932,0 4.408044,-1.08899 7.571631,-3.78581 0.259312,2.69682 1.192832,3.78581 3.319177,3.78581 1.538991,0 2.564706,-0.47444 4.007507,-1.90531 v 1.59422 h 0.674378 c 0.363034,-0.51862 0.570347,-0.62218 1.192692,-0.62218 1.296551,0 3.837922,0.93327 6.171716,0.93327 3.993381,0 7.312731,-3.00801 7.312731,-6.63835 0,-2.59311 -1.2446,-4.30469 -4.35632,-6.17172 l -5.601211,-3.31918 c -1.452138,-0.82979 -2.230354,-2.12612 -2.230354,-3.52639 0,-2.07449 1.607898,-3.5264 3.993554,-3.5264 2.956138,0 4.512251,1.76321 5.705081,6.37893 h 0.77773 l -0.11782,-4.00337 c 0.66971,-0.19555 1.57305,-0.56069 2.07222,-0.56069 1.34841,0 1.81539,0.82979 1.81539,3.31918 v 13.12116 c 0,2.80057 -0.72599,3.57841 -3.63027,3.63027 v 0.77825 h 11.513507 v -0.77825 c -2.748687,-0.10378 -3.526907,-0.67385 -3.526907,-2.69647 v -14.62547 c 1.60772,-2.38566 4.616047,-3.05976 6.120037,-3.05976 2.28193,0 3.42252,1.81532 3.42252,5.44566 v 11.2541 c 0,2.90428 -0.57025,3.47449 -3.52639,3.68194 v 0.77825 h 11.61685 v -0.77825 c -2.95613,-0.0519 -3.73414,-0.93364 -3.73414,-4.1491 v -13.06897 c 1.55587,-2.23008 3.26775,-3.16363 5.65341,-3.16363 2.95613,0 3.88968,1.40052 3.88968,5.70508 v 10.94248 c 0,2.95615 -0.41505,3.37111 -3.42305,3.73414 v 0.77825 h 11.35797 v -0.77825 l -1.34876,-0.10387 c -1.55587,-0.10378 -2.22984,-1.03713 -2.22984,-3.05976 v -10.68359 c 0,-3.41303 -0.63023,-5.88916 -1.87947,-7.41298 1.66155,0.32959 4.67775,1.00363 4.67775,2.74557 v 13.06949 c 0,4.09709 2.48915,6.7417 6.27507,6.7417 3.73408,0 5.75697,-2.64501 7.57215,-4.46019 v 4.30465 l 0.20722,0.10387 c 2.86597,-0.2754 3.95645,-0.39906 5.13819,-0.46664 h 10.43296 v -0.77825 c -3.52662,-0.15559 -4.408,-0.93354 -4.408,-3.88968 v -11.66906 c 0,-1.65958 2.23,-4.25245 3.63027,-4.25245 0.82978,0 2.02225,1.81487 3.42253,1.81487 v 5.2e-4 c 1.0377,0 1.75104,-0.61352 1.95957,-1.65881 1.27581,0.0117 1.73736,0.84509 1.73736,3.11092 v 12.9651 c 0,2.5931 -0.36329,2.95624 -3.68247,3.57859 v 0.77825 h 12.44679 v -0.77825 c -3.52661,-0.15559 -4.408,-0.93357 -4.408,-3.88968 v -11.66906 c 0,-1.65957 2.23,-4.25245 3.63027,-4.25245 0.8298,0 2.02277,1.81487 3.42305,1.81487 v 5.2e-4 c 0.082,0 0.1619,-0.004 0.23978,-0.0124 a 11.721693,12.213725 0 0 0 -2.37609,7.35872 11.721693,12.213725 0 0 0 11.72177,12.21373 11.721693,12.213725 0 0 0 11.72176,-12.21373 11.721693,12.213725 0 0 0 -11.72176,-12.21372 11.721693,12.213725 0 0 0 -7.58145,2.90938 c 0.0125,-0.12084 0.0186,-0.24647 0.0186,-0.37672 0,-1.71145 -1.08923,-2.74867 -2.85254,-2.74867 -2.17818,0 -3.68215,1.19298 -6.22339,4.87515 v -4.77128 l -0.25942,-0.10335 c -2.14406,0.89 -3.75835,1.4972 -5.81411,2.18849 -0.21606,-1.3745 -1.24774,-2.18849 -2.80913,-2.18849 -2.17822,0 -3.68215,1.19294 -6.22339,4.87515 v -4.77128 l -0.25942,-0.10387 c -2.54122,1.05485 -4.34069,1.7137 -7.01404,2.58537 v -2.06654 h -10.96212 v 1.16117 c 3.21543,0.15558 6.60579,0.39481 6.60579,2.98793 v 12.18737 c 0,3.94151 -4.51177,4.51187 -5.54901,4.51187 -2.02263,0 -3.68246,-1.76317 -3.68246,-3.94136 v -16.90698 l -10.43037,0.0599 0.0279,0.0837 c -0.7829,-0.43931 -1.70496,-0.66249 -2.76831,-0.66249 -3.00799,0 -5.6532,1.34832 -8.45374,4.35632 -0.93352,-2.95614 -2.69678,-4.35632 -5.49733,-4.35632 -2.28194,0 -3.73372,0.72624 -8.038277,3.99355 v -3.88968 l -0.36328,-0.10387 c -2.52611,0.9411 -5.00375,1.70455 -7.70599,2.44894 l -0.0568,-1.93011 h -0.57051 c -0.31117,0.20745 -0.51875,0.51883 -0.82993,0.51883 -1.14096,0 -2.022697,-0.98547 -5.030697,-0.98547 -4.097104,0 -7.053316,2.64486 -7.053316,6.37894 0,2.90428 1.65957,4.97891 6.067847,7.46828 l 3.008085,1.711 c 1.815171,1.03724 2.696991,2.28196 2.696991,3.88969 0,2.28194 -1.659679,3.73414 -4.304645,3.73414 -5.289933,0 -6.11992,-5.18606 -6.586678,-7.26054 h -0.829924 v 4.94595 c -0.565725,0.35957 -1.051939,0.49971 -1.621606,0.49971 -1.192829,0 -1.555977,-0.72615 -1.555977,-3.00808 v -10.11308 c 0,-5.18621 -1.452276,-8.2982 -7.468278,-8.2982 -4.875035,0 -8.712647,2.54162 -8.712647,5.80894 0,1.19283 1.03701,2.22984 2.229838,2.22984 1.24469,0 2.333708,-1.03719 2.333708,-2.17816 0,-0.46676 -0.258899,-1.34822 -0.258899,-2.07429 0,-1.40028 1.659138,-2.54145 3.733622,-2.54145 2.541243,0 3.941878,1.50408 3.941878,4.30465 v 3.14658 c -16.940972,4.06009 -18.598271,12.86339 -26.377718,12.9589 -5.808116,0.0713 -11.478886,-2.67341 -11.478886,-15.32775 0,-9.38705 4.823431,-15.45487 12.343433,-15.45487 6.690208,0 9.698085,4.71954 11.150224,9.64644 h 1.192692 l -0.466638,-11.72073 h -1.088823 c -0.311173,1.08911 -1.141436,1.71152 -2.178678,1.71152 -1.867035,0 -3.94128,-1.71152 -9.594247,-1.71152 z m 143.310106,12.87673 c 2.16629,4.8276 3.93378,4.96935 3.90674,13.12788 -0.68211,0.9796 -1.82118,1.17069 -2.48977,2.87528 0.62544,0.18845 0.98082,0.64608 0.98082,1.75493 v 3.39307 c 0,0 0.32331,0.65385 -2.4846,0.67335 -2.80794,0.0196 -2.43241,-0.68575 -2.43241,-0.68575 v -3.45302 c 0,-1.03096 0.28731,-1.47537 0.81545,-1.66708 -0.66326,-1.82688 -1.76699,-2.0631 -2.3058,-2.93419 0.0184,-7.95746 1.48092,-8.11467 3.73155,-13.07413 v 6.82438 c -0.44986,0.0464 -0.79457,0.30131 -0.79478,0.60979 7e-5,0.22518 0.18652,0.43228 0.48679,0.54105 v 4.45554 c 0,0.15535 0.19125,0.2806 0.42788,0.2806 0.23664,0 0.42685,-0.12518 0.42685,-0.2806 v -4.43745 c 0.33043,-0.1017 0.5417,-0.3195 0.54209,-0.55914 -2.2e-4,-0.31209 -0.3531,-0.56937 -0.81081,-0.61134 z m -37.97287,1.74821 c 1.29654,0 1.7632,0.83002 1.7632,3.11196 v 12.9651 c 0,0.75632 -0.0315,1.32195 -0.15762,1.76061 -2.21561,-0.0331 -2.759,-0.63667 -2.759,-2.9533 V 185.0747 c 0.39622,-0.0606 0.74123,-0.0842 1.15342,-0.0842 z m -78.838595,6.53449 v 7.51995 c 0,1.60772 -0.259651,2.07466 -1.348755,2.697 -1.24469,0.72608 -2.696711,1.19269 -3.785815,1.19269 -1.296553,0 -3.266984,-1.08906 -3.266984,-4.20078 0,-3.05988 2.126243,-4.92692 8.401554,-7.20886 z" />
  </g>
</svg>
