<svg fill="none" height="24" viewBox="0 0 24 24" width="24" xmlns="http://www.w3.org/2000/svg"><g fill="#1c274c"><path d="m15.75 2c0-.41421-.3358-.75-.75-.75s-.75.33579-.75.75v20c0 .4142.3358.75.75.75s.75-.3358.75-.75v-2.0056c2.6359-.0276 4.1041-.1916 5.0784-1.166 1.1716-1.1715 1.1716-3.0572 1.1716-6.8284 0-3.77124 0-5.65685-1.1716-6.82843-.9743-.97433-2.4425-1.13836-5.0784-1.16598z"/><path clip-rule="evenodd" d="m10 20c-3.77124 0-5.65685 0-6.82843-1.1716-1.17157-1.1715-1.17157-3.0572-1.17157-6.8284 0-3.77124 0-5.65685 1.17157-6.82843 1.17158-1.17157 3.05719-1.17157 6.82843-1.17157h3v16zm-3.18218-12.21267c.29997-.03741.66647-.03737 1.06601-.03733h2.23237c.3995-.00004.766-.00008 1.066.03733.3287.041.679.13687.9802.40454.0514.04566.1001.09431.1457.14569.2677.30122.3636.65159.4046.98026.0374.29997.0374.66646.0373 1.06598v.0412c0 .4142-.3358.75-.75.75s-.75-.3358-.75-.75c0-.45453-.0014-.72569-.0258-.92152s-.2277-.22768-.2277-.22768c-.1958-.02443-.467-.02579-.9215-.02579h-.32499v5.49999h1.24999c.4142 0 .75.3358.75.75s-.3358.75-.75.75h-3.99999c-.41422 0-.75-.3358-.75-.75s.33578-.75.75-.75h1.25v-5.49999h-.32501c-.45453 0-.72569.00136-.92152.02579 0 0-.20325.03185-.22768.22768s-.02579.46699-.02579.92152c0 .4142-.33579.75-.75.75-.41422 0-.75-.3358-.75-.75l-.00001-.0412c-.00004-.39952-.00008-.76601.03733-1.06598.041-.32867.13687-.67904.40454-.98026.04566-.05138.09431-.10003.14569-.14569.30122-.26767.65159-.36354.98026-.40454z" fill-rule="evenodd"/></g></svg>