<?xml version="1.0" encoding="UTF-8" standalone="no"?>
<!-- Created with Inkscape (http://www.inkscape.org/) -->

<svg
   width="23.443539mm"
   height="24.42745mm"
   viewBox="0 0 23.443539 24.42745"
   version="1.1"
   id="svg5"
   inkscape:version="1.3 (0e150ed6c4, 2023-07-21)"
   sodipodi:docname="casmurro-logo.svg"
   inkscape:export-filename="casmurro-logo-3.png"
   inkscape:export-xdpi="96"
   inkscape:export-ydpi="96"
   xmlns:inkscape="http://www.inkscape.org/namespaces/inkscape"
   xmlns:sodipodi="http://sodipodi.sourceforge.net/DTD/sodipodi-0.dtd"
   xmlns="http://www.w3.org/2000/svg"
   xmlns:svg="http://www.w3.org/2000/svg">
  <sodipodi:namedview
     id="namedview7"
     pagecolor="#ffffff"
     bordercolor="#000000"
     borderopacity="0.25"
     inkscape:showpageshadow="2"
     inkscape:pageopacity="0.0"
     inkscape:pagecheckerboard="0"
     inkscape:deskcolor="#d1d1d1"
     inkscape:document-units="mm"
     showgrid="false"
     showguides="true"
     inkscape:zoom="1.3178098"
     inkscape:cx="406.35606"
     inkscape:cy="624.52108"
     inkscape:window-width="1920"
     inkscape:window-height="1012"
     inkscape:window-x="1366"
     inkscape:window-y="40"
     inkscape:window-maximized="1"
     inkscape:current-layer="layer1">
    <sodipodi:guide
       position="34.004328,253.88198"
       orientation="0,-1"
       id="guide2646"
       inkscape:locked="false" />
    <sodipodi:guide
       position="-69.93909,231.75485"
       orientation="1,0"
       id="guide2796"
       inkscape:locked="false" />
    <sodipodi:guide
       position="33.876598,243.65184"
       orientation="1,0"
       id="guide536"
       inkscape:locked="false" />
    <sodipodi:guide
       position="43.494468,245.9163"
       orientation="0,-1"
       id="guide4526"
       inkscape:locked="false" />
    <sodipodi:guide
       position="36.608948,237.14969"
       orientation="0,-1"
       id="guide5289"
       inkscape:locked="false" />
  </sodipodi:namedview>
  <defs
     id="defs2" />
  <g
     inkscape:label="Layer 1"
     inkscape:groupmode="layer"
     id="layer1"
     transform="translate(-127.79162,-71.400404)">
    <path
       id="path4522-3"
       style="display:inline;fill:#cbcbcb;fill-opacity:1;stroke-width:0.317574"
       d="m 139.51339,71.400407 a 11.721693,12.213725 0 0 0 -11.72176,12.213725 11.721693,12.213725 0 0 0 11.72176,12.213725 11.721693,12.213725 0 0 0 11.72177,-12.213725 11.721693,12.213725 0 0 0 -11.72177,-12.213725 z m -0.0279,1.153418 c 2.22791,5.133948 4.06973,5.104395 4.04213,13.433289 -0.68211,0.979599 -1.82067,1.170688 -2.48926,2.875276 0.62544,0.18845 0.98082,0.646083 0.98082,1.754932 v 3.393075 c 0,0 0.32334,0.653844 -2.4846,0.673343 -2.80794,0.01959 -2.43241,-0.685746 -2.43241,-0.685746 v -3.453019 c 0,-1.030959 0.28731,-1.475372 0.81545,-1.667082 -0.66326,-1.826878 -1.76699,-2.062582 -2.3058,-2.933671 0.0188,-8.124625 1.5422,-8.114952 3.87367,-13.390397 z m 0.005,7.131865 c -0.52003,-1.9e-4 -0.94183,0.27655 -0.94206,0.61805 7e-5,0.225179 0.18653,0.432282 0.4868,0.541052 v 4.455542 c 0,0.15535 0.19125,0.28112 0.42788,0.28112 0.23664,0 0.42684,-0.1257 0.42684,-0.28112 v -4.437455 c 0.33043,-0.1017 0.5417,-0.3195 0.54209,-0.559139 -2.4e-4,-0.34132 -0.42177,-0.61797 -0.94155,-0.61805 z"
       inkscape:export-filename="favicon.png"
       inkscape:export-xdpi="96"
       inkscape:export-ydpi="96" />
  </g>
</svg>
